<svg width="20" height="20" viewBox="0 0 20 20" fill="none" xmlns="http://www.w3.org/2000/svg">
<path d="M9.17578 3.67557C9.27518 3.29024 9.82241 3.29024 9.92181 3.67557L10.9929 7.82789C11.028 7.96365 11.134 8.06967 11.2697 8.10469L15.422 9.17581C15.8074 9.27521 15.8074 9.82244 15.422 9.92184L11.2697 10.993C11.134 11.028 11.028 11.134 10.9929 11.2698L9.92181 15.4221C9.82241 15.8074 9.27518 15.8074 9.17578 15.4221L8.10466 11.2698C8.06964 11.134 7.96362 11.028 7.82787 10.993L3.67555 9.92184C3.29021 9.82244 3.29021 9.27521 3.67554 9.17581L7.82787 8.10469C7.96362 8.06967 8.06964 7.96365 8.10466 7.82789L9.17578 3.67557Z" fill="#4DFBEA"/>
<path fill-rule="evenodd" clip-rule="evenodd" d="M8.89602 3.60341C9.06997 2.92907 10.0276 2.92907 10.2016 3.60341L11.2727 7.75573C11.2815 7.78967 11.308 7.81617 11.3419 7.82493L15.4942 8.89605C16.1686 9.07 16.1686 10.0276 15.4942 10.2016L11.3419 11.2727C11.308 11.2815 11.2815 11.308 11.2727 11.3419L10.2016 15.4942C10.0276 16.1686 9.06997 16.1686 8.89602 15.4942L7.8249 11.3419C7.81614 11.308 7.78964 11.2815 7.7557 11.2727L3.60338 10.2016C2.92904 10.0276 2.92904 9.07 3.60338 8.89605L7.7557 7.82493C7.78964 7.81617 7.81614 7.78967 7.8249 7.75573L8.89602 3.60341ZM9.48923 3.69321C9.47723 3.70186 9.46355 3.71668 9.45554 3.74774L8.38442 7.90006C8.32313 8.13764 8.13761 8.32316 7.90003 8.38445L3.74771 9.45557C3.71665 9.46358 3.70183 9.47726 3.69318 9.48926C3.68287 9.50357 3.67546 9.52439 3.67546 9.54883C3.67546 9.57326 3.68287 9.59408 3.69318 9.60839C3.70183 9.62039 3.71665 9.63407 3.74771 9.64208L7.90003 10.7132C8.13761 10.7745 8.32313 10.96 8.38442 11.1976L9.45554 15.3499C9.46355 15.381 9.47723 15.3958 9.48923 15.4044C9.50354 15.4148 9.52436 15.4222 9.5488 15.4222C9.57323 15.4222 9.59405 15.4148 9.60836 15.4044C9.62036 15.3958 9.63404 15.381 9.64205 15.3499L10.7132 11.1976C10.7745 10.96 10.96 10.7745 11.1976 10.7132L15.3499 9.64208C15.3809 9.63407 15.3958 9.62039 15.4044 9.60839C15.4147 9.59409 15.4221 9.57326 15.4221 9.54883C15.4221 9.52439 15.4147 9.50357 15.4044 9.48926C15.3958 9.47726 15.3809 9.46358 15.3499 9.45557L11.1976 8.38445C10.96 8.32316 10.7745 8.13764 10.7132 7.90006L9.64205 3.74774C9.63404 3.71668 9.62036 3.70186 9.60836 3.69321C9.59406 3.6829 9.57323 3.67549 9.5488 3.67549C9.52436 3.67549 9.50354 3.6829 9.48923 3.69321Z" fill="#4DFBEA"/>
<path fill-rule="evenodd" clip-rule="evenodd" d="M14.1715 12.2454C14.2779 12.2454 14.3641 12.3316 14.3641 12.438V15.6161C14.3641 15.7225 14.2779 15.8087 14.1715 15.8087C14.0652 15.8087 13.9789 15.7225 13.9789 15.6161V12.438C13.9789 12.3316 14.0652 12.2454 14.1715 12.2454Z" fill="#4DFBEA"/>
<path fill-rule="evenodd" clip-rule="evenodd" d="M4.73351 3C4.83989 3 4.92613 3.08624 4.92613 3.19261V6.37072C4.92613 6.4771 4.83989 6.56333 4.73351 6.56333C4.62714 6.56333 4.5409 6.4771 4.5409 6.37072V3.19261C4.5409 3.08624 4.62714 3 4.73351 3Z" fill="#4DFBEA"/>
<path fill-rule="evenodd" clip-rule="evenodd" d="M16.0014 13.9789C16.0014 14.0853 15.9151 14.1715 15.8087 14.1715H12.6306C12.5243 14.1715 12.438 14.0853 12.438 13.9789C12.438 13.8725 12.5243 13.7863 12.6306 13.7863H15.8087C15.9151 13.7863 16.0014 13.8725 16.0014 13.9789Z" fill="#4DFBEA"/>
<path fill-rule="evenodd" clip-rule="evenodd" d="M6.56333 4.73351C6.56333 4.83989 6.4771 4.92613 6.37072 4.92613L3.19261 4.92613C3.08624 4.92613 3 4.83989 3 4.73351C3 4.62714 3.08624 4.5409 3.19261 4.5409L6.37072 4.5409C6.4771 4.5409 6.56333 4.62714 6.56333 4.73351Z" fill="#4DFBEA"/>
</svg>
