<svg xmlns="http://www.w3.org/2000/svg" width="202" height="202" viewBox="0 0 202 202" fill="none">
  <path d="M37.9925 91.6506C37.9925 91.6506 65.963 90.5305 72.0074 44.5531C77.3751 3.72073 124.541 22.3061 138.174 38.5829C155.836 59.6681 146.421 95.939 169.268 100.521C192.115 105.103 177.196 156.048 142.515 151.171C99.3735 145.105 109.811 170.315 96.8604 180.985C87.5659 188.643 49.4548 181.271 48.1847 153.472C47.1158 130.08 37.2483 130.154 30.2541 127.501C20.1669 123.676 13.8109 95.9704 37.9925 91.6506Z" fill="#F9F9F9"/>
  <path d="M149.805 83.924C152.418 75.8615 161.095 71.4596 169.125 74.0623C177.155 76.6648 181.59 85.3525 178.987 93.3824C176.384 101.412 167.729 105.857 159.666 103.244C151.604 100.631 147.202 91.9535 149.805 83.924Z" fill="#E2E6ED"/>
  <path d="M44.9904 153.929C45.7545 152.562 46.9068 151.453 48.3015 150.741C50.1721 149.789 52.3441 149.617 54.3409 150.265C56.3377 150.912 57.9962 152.325 58.9525 154.193C59.6644 155.588 59.9468 157.162 59.7638 158.718C59.5809 160.273 58.941 161.739 57.9249 162.93C56.9088 164.122 55.5622 164.985 54.0555 165.411C52.5487 165.837 50.9494 165.807 49.4598 165.324C47.9702 164.841 46.6573 163.928 45.6869 162.699C44.7166 161.47 44.1326 159.981 44.0086 158.42C43.8846 156.859 44.2263 155.296 44.9904 153.929Z" fill="#E2E6ED"/>
  <mask id="mask0_441_384" style="mask-type:alpha" maskUnits="userSpaceOnUse" x="152" y="77" width="24" height="25">
    <rect x="152" y="77.0078" width="24" height="24" fill="#D9D9D9"/>
  </mask>
  <g mask="url(#mask0_441_384)">
    <path d="M154.7 94.633C154.5 94.433 154.404 94.1955 154.412 93.9205C154.421 93.6455 154.517 93.4163 154.7 93.233L159.975 87.883C160.358 87.4997 160.833 87.308 161.4 87.308C161.967 87.308 162.442 87.4997 162.825 87.883L165.4 90.483L170.6 85.333H169C168.717 85.333 168.479 85.2372 168.287 85.0455C168.096 84.8538 168 84.6163 168 84.333C168 84.0497 168.096 83.8122 168.287 83.6205C168.479 83.4288 168.717 83.333 169 83.333H173C173.283 83.333 173.521 83.4288 173.712 83.6205C173.904 83.8122 174 84.0497 174 84.333V88.333C174 88.6163 173.904 88.8538 173.712 89.0455C173.521 89.2372 173.283 89.333 173 89.333C172.717 89.333 172.479 89.2372 172.287 89.0455C172.096 88.8538 172 88.6163 172 88.333V86.733L166.825 91.908C166.442 92.2913 165.967 92.483 165.4 92.483C164.833 92.483 164.358 92.2913 163.975 91.908L161.4 89.333L156.1 94.633C155.917 94.8163 155.683 94.908 155.4 94.908C155.117 94.908 154.883 94.8163 154.7 94.633Z" fill="white"/>
  </g>
  <mask id="mask1_441_384" style="mask-type:alpha" maskUnits="userSpaceOnUse" x="52" y="51" width="97" height="98">
    <rect x="52" y="51.8828" width="97" height="97" fill="#D9D9D9"/>
  </mask>
  <g mask="url(#mask1_441_384)">
    <path d="M78.2708 130.695C72.6852 130.695 67.9208 128.758 63.9775 124.882C60.0342 121.007 58.0625 116.271 58.0625 110.674C58.0625 105.743 59.6455 101.349 62.8115 97.493C65.9774 93.6366 70.0164 91.3561 74.9284 90.6515C76.2237 84.6099 79.2617 79.6693 84.0423 75.8297C88.8223 71.9901 94.3082 70.0703 100.5 70.0703C107.818 70.0703 114.026 72.6193 119.124 77.7171C124.222 82.815 126.771 89.023 126.771 96.3411V98.362H128.015C132.274 98.6934 135.826 100.406 138.671 103.5C141.515 106.593 142.938 110.269 142.938 114.529C142.938 119.036 141.37 122.858 138.235 125.993C135.1 129.128 131.279 130.695 126.771 130.695H78.2708ZM78.2708 124.633H126.771C129.6 124.633 131.991 123.656 133.945 121.703C135.898 119.749 136.875 117.358 136.875 114.529C136.875 111.699 135.898 109.308 133.945 107.355C131.991 105.401 129.6 104.424 126.771 104.424H120.708V96.3411C120.708 90.7502 118.738 85.9844 114.797 82.0437C110.857 78.1031 106.091 76.1328 100.5 76.1328C94.909 76.1328 90.1432 78.1031 86.2026 82.0437C82.262 85.9844 80.2917 90.7502 80.2917 96.3411H78.2708C74.3639 96.3411 71.0295 97.722 68.2677 100.484C65.5059 103.246 64.125 106.58 64.125 110.487C64.125 114.394 65.5059 117.728 68.2677 120.49C71.0295 123.252 74.3639 124.633 78.2708 124.633ZM100.501 114.489C101.361 114.489 102.08 114.199 102.66 113.618C103.241 113.037 103.531 112.317 103.531 111.457C103.531 110.598 103.241 109.878 102.659 109.298C102.078 108.718 101.358 108.428 100.499 108.428C99.6395 108.428 98.9197 108.718 98.3397 109.299C97.7591 109.88 97.4688 110.6 97.4688 111.46C97.4688 112.319 97.7594 113.039 98.3407 113.619C98.9221 114.199 99.6422 114.489 100.501 114.489ZM100.501 102.365C101.361 102.365 102.08 102.075 102.66 101.493C103.241 100.913 103.531 100.193 103.531 99.334V88.2578C103.531 87.399 103.241 86.6792 102.659 86.0986C102.078 85.5172 101.358 85.2266 100.499 85.2266C99.6395 85.2266 98.9197 85.5172 98.3397 86.0986C97.7591 86.6792 97.4688 87.399 97.4688 88.2578V99.334C97.4688 100.193 97.7594 100.913 98.3407 101.493C98.9221 102.075 99.6422 102.365 100.501 102.365Z" fill="#E2E6ED"/>
  </g>
  <mask id="mask2_441_384" style="mask-type:alpha" maskUnits="userSpaceOnUse" x="46" y="152" width="12" height="14">
    <rect x="46" y="152.008" width="12" height="13" fill="#D9D9D9"/>
  </mask>
  <g mask="url(#mask2_441_384)">
    <path d="M51.8945 162.137C51.8257 162.137 51.7678 162.112 51.7207 162.062C51.6736 162.012 51.65 161.949 51.65 161.875V158.915L48.8135 155.199C48.7673 155.132 48.7607 155.062 48.7936 154.989C48.8265 154.916 48.8803 154.879 48.9549 154.879H55.0451C55.1197 154.879 55.1735 154.916 55.2064 154.989C55.2393 155.062 55.2327 155.132 55.1865 155.199L52.35 158.915V161.875C52.35 161.949 52.3269 162.012 52.2807 162.062C52.2346 162.112 52.1771 162.137 52.1084 162.137H51.8945ZM52 158.264L54.025 155.583H49.9625L52 158.264Z" fill="white"/>
  </g>
</svg>