<svg width="202" height="203" viewBox="0 0 202 203" fill="none" xmlns="http://www.w3.org/2000/svg">
<path d="M37.9926 91.7678C37.9926 91.7678 65.963 90.6477 72.0074 44.6703C77.3751 3.83792 124.541 22.4233 138.174 38.7001C155.836 59.7853 146.421 96.0562 169.268 100.638C192.115 105.22 177.196 156.165 142.515 151.289C99.3735 145.223 109.811 170.432 96.8604 181.102C87.5659 188.76 49.4548 181.389 48.1847 153.589C47.1158 130.197 37.2483 130.271 30.2541 127.618C20.167 123.793 13.8109 96.0876 37.9926 91.7678Z" fill="#F9F9F9"/>
<path d="M149.805 84.0412C152.418 75.9787 161.095 71.5768 169.125 74.1795C177.155 76.782 181.59 85.4696 178.987 93.4995C176.384 101.529 167.729 105.974 159.666 103.361C151.604 100.748 147.202 92.0707 149.805 84.0412Z" fill="#E2E6ED"/>
<path d="M44.9904 154.046C45.7545 152.68 46.9068 151.57 48.3015 150.858C50.1721 149.906 52.3441 149.735 54.3409 150.382C56.3377 151.029 57.9962 152.442 58.9525 154.31C59.6644 155.705 59.9468 157.28 59.7639 158.835C59.5809 160.39 58.941 161.856 57.9249 163.047C56.9088 164.239 55.5623 165.102 54.0555 165.528C52.5487 165.954 50.9494 165.924 49.4598 165.441C47.9702 164.959 46.6573 164.045 45.687 162.816C44.7166 161.587 44.1326 160.098 44.0086 158.537C43.8846 156.976 44.2263 155.413 44.9904 154.046Z" fill="#E2E6ED"/>
<mask id="mask0_376_3974" style="mask-type:alpha" maskUnits="userSpaceOnUse" x="152" y="77" width="24" height="25">
<rect x="152" y="77.125" width="24" height="24" fill="#D9D9D9"/>
</mask>
<g mask="url(#mask0_376_3974)">
<path d="M154.7 94.7502C154.5 94.5502 154.404 94.3127 154.413 94.0377C154.421 93.7627 154.517 93.5335 154.7 93.3502L159.975 88.0002C160.358 87.6169 160.833 87.4252 161.4 87.4252C161.967 87.4252 162.442 87.6169 162.825 88.0002L165.4 90.6002L170.6 85.4502H169C168.717 85.4502 168.479 85.3544 168.288 85.1627C168.096 84.971 168 84.7335 168 84.4502C168 84.1669 168.096 83.9294 168.288 83.7377C168.479 83.546 168.717 83.4502 169 83.4502H173C173.283 83.4502 173.521 83.546 173.713 83.7377C173.904 83.9294 174 84.1669 174 84.4502V88.4502C174 88.7335 173.904 88.971 173.713 89.1627C173.521 89.3544 173.283 89.4502 173 89.4502C172.717 89.4502 172.479 89.3544 172.288 89.1627C172.096 88.971 172 88.7335 172 88.4502V86.8502L166.825 92.0252C166.442 92.4085 165.967 92.6002 165.4 92.6002C164.833 92.6002 164.358 92.4085 163.975 92.0252L161.4 89.4502L156.1 94.7502C155.917 94.9335 155.683 95.0252 155.4 95.0252C155.117 95.0252 154.883 94.9335 154.7 94.7502Z" fill="white"/>
</g>
<mask id="mask1_376_3974" style="mask-type:alpha" maskUnits="userSpaceOnUse" x="46" y="42" width="103" height="104">
<rect x="46" y="42.125" width="103" height="103" fill="#D9D9D9"/>
</mask>
<g mask="url(#mask1_376_3974)">
<path d="M62.0144 133.28C60.8141 133.28 59.8188 132.881 59.0284 132.082C58.2388 131.283 57.8439 130.29 57.8439 129.103V123.67C57.8439 122.521 58.2452 121.536 59.0478 120.714C59.8503 119.893 60.8417 119.482 62.0219 119.482C63.2021 119.482 64.187 119.891 64.9767 120.71C65.7664 121.529 66.1612 122.524 66.1612 123.694V129.128C66.1612 130.298 65.7588 131.283 64.9542 132.082C64.1488 132.881 63.1688 133.28 62.0144 133.28ZM79.7175 133.28C78.5394 133.28 77.5599 132.88 76.7788 132.079C75.9984 131.277 75.6082 130.281 75.6082 129.092V108.263C75.6082 107.09 76.007 106.109 76.8045 105.319C77.6028 104.53 78.5941 104.135 79.7786 104.135C80.9631 104.135 81.9506 104.53 82.741 105.319C83.5306 106.109 83.9255 107.09 83.9255 108.263V129.092C83.9255 130.281 83.5228 131.277 82.7174 132.079C81.9127 132.88 80.9127 133.28 79.7175 133.28ZM97.5365 133.28C96.3799 133.28 95.3967 132.881 94.587 132.082C93.7766 131.283 93.3714 130.286 93.3714 129.092V114.701C93.3714 113.551 93.7845 112.565 94.6106 111.744C95.4368 110.922 96.4282 110.511 97.5848 110.511C98.7414 110.511 99.7145 110.922 100.504 111.744C101.294 112.565 101.689 113.551 101.689 114.701V129.152C101.689 130.301 101.286 131.277 100.481 132.079C99.6745 132.88 98.6931 133.28 97.5365 133.28ZM115.306 133.28C114.105 133.28 113.11 132.881 112.32 132.082C111.531 131.283 111.136 130.286 111.136 129.092V102.879C111.136 101.725 111.537 100.748 112.34 99.9493C113.141 99.1503 114.132 98.7508 115.313 98.7508C116.493 98.7508 117.478 99.1503 118.268 99.9493C119.058 100.748 119.453 101.725 119.453 102.879V129.152C119.453 130.301 119.05 131.277 118.245 132.079C117.44 132.88 116.461 133.28 115.306 133.28ZM133.004 133.28C131.847 133.28 130.874 132.881 130.084 132.082C129.294 131.283 128.899 130.286 128.899 129.092V90.0044C128.899 88.8499 129.3 87.8732 130.103 87.0743C130.905 86.2753 131.885 85.8758 133.041 85.8758C134.197 85.8758 135.172 86.2753 135.966 87.0743C136.759 87.8732 137.156 88.8499 137.156 90.0044V129.152C137.156 130.301 136.753 131.277 135.947 132.079C135.141 132.88 134.16 133.28 133.004 133.28ZM106.06 91.8895C104.975 91.8895 103.911 91.6717 102.869 91.2361C101.827 90.8012 100.875 90.1728 100.014 89.351L88.9167 78.2538L65.2428 101.82C64.3923 102.667 63.3666 103.073 62.1656 103.04C60.9647 103.008 59.9604 102.568 59.1529 101.718C58.3518 100.869 57.9334 99.8741 57.8976 98.7326C57.8618 97.591 58.267 96.5975 59.1132 95.752L82.9545 72.1242C83.8042 71.2702 84.7427 70.6415 85.7698 70.238C86.7977 69.8346 87.8466 69.6329 88.9167 69.6329C89.9867 69.6329 91.0475 69.8346 92.099 70.238C93.1497 70.6415 94.0763 71.2702 94.8789 72.1242L106.083 83.3287L129.865 59.5475C130.711 58.7013 131.717 58.2768 132.885 58.2739C134.052 58.2704 135.04 58.6935 135.847 59.5432C136.648 60.3922 137.067 61.3872 137.102 62.5281C137.138 63.6696 136.733 64.6635 135.887 65.5097L112.046 89.351C111.266 90.2007 110.345 90.8363 109.282 91.2576C108.22 91.6789 107.146 91.8895 106.06 91.8895Z" fill="#E2E6ED"/>
</g>
<mask id="mask2_376_3974" style="mask-type:alpha" maskUnits="userSpaceOnUse" x="46" y="152" width="12" height="14">
<rect x="46" y="152.125" width="12" height="13" fill="#D9D9D9"/>
</mask>
<g mask="url(#mask2_376_3974)">
<path d="M51.8945 162.254C51.8258 162.254 51.7678 162.229 51.7208 162.179C51.6736 162.129 51.65 162.067 51.65 161.992V159.033L48.8135 155.316C48.7673 155.249 48.7607 155.179 48.7936 155.106C48.8265 155.033 48.8803 154.996 48.9549 154.996H55.0451C55.1197 154.996 55.1735 155.033 55.2064 155.106C55.2393 155.179 55.2327 155.249 55.1865 155.316L52.35 159.033V161.992C52.35 162.067 52.3269 162.129 52.2808 162.179C52.2346 162.229 52.1771 162.254 52.1084 162.254H51.8945ZM52 158.382L54.025 155.7H49.9625L52 158.382Z" fill="white"/>
</g>
</svg>
