<svg xmlns="http://www.w3.org/2000/svg" width="60" height="61" viewBox="0 0 60 61" fill="none">
  <g clip-path="url(#clip0_1033_6130)">
    <path d="M46.6667 5.9541C48.5067 5.9541 50 7.17592 50 8.68137C50 10.1868 48.5067 11.4086 46.6667 11.4086H46.5332C46.2783 14.5487 45.5318 19.6196 43.3333 22.3177C40.41 25.9055 35 27.7709 35 30.4996C35 33.2282 40.41 35.0936 43.3333 38.6814C45.5318 41.3795 46.2783 46.4504 46.5332 49.5905H46.6667C48.5067 49.5905 50 50.8123 50 52.3177C50 53.8232 48.5067 55.045 46.6667 55.045H13.3333C11.4933 55.045 10 53.8232 10 52.3177C10 50.8123 11.4933 49.5905 13.3333 49.5905H13.4668C13.7216 46.4504 14.4682 41.3795 16.6667 38.6814C19.59 35.0936 25 33.2282 25 30.4996C25 27.7709 19.59 25.9055 16.6667 22.3177C14.4682 19.6196 13.7216 14.5487 13.4668 11.4086H13.3333C11.4933 11.4086 10 10.1868 10 8.68137C10 7.17592 11.4933 5.9541 13.3333 5.9541H46.6667Z" fill="#D9D9D9"/>
    <mask id="mask0_1033_6130" style="mask-type:luminance" maskUnits="userSpaceOnUse" x="3" y="0" width="54" height="61">
      <path d="M56.6666 0.5H3.33325V60.5H56.6666V0.5Z" fill="white"/>
      <path d="M46.6667 5.9541C48.5067 5.9541 50 7.17592 50 8.68137C50 10.1868 48.5067 11.4086 46.6667 11.4086H46.5332C46.2783 14.5487 45.5318 19.6196 43.3333 22.3177C40.41 25.9055 35 27.7709 35 30.4996C35 33.2282 40.41 35.0936 43.3333 38.6814C45.5318 41.3795 46.2783 46.4504 46.5332 49.5905H46.6667C48.5067 49.5905 50 50.8123 50 52.3177C50 53.8232 48.5067 55.045 46.6667 55.045H13.3333C11.4933 55.045 10 53.8232 10 52.3177C10 50.8123 11.4933 49.5905 13.3333 49.5905H13.4668C13.7216 46.4504 14.4682 41.3795 16.6667 38.6814C19.59 35.0936 25 33.2282 25 30.4996C25 27.7709 19.59 25.9055 16.6667 22.3177C14.4682 19.6196 13.7216 14.5487 13.4668 11.4086H13.3333C11.4933 11.4086 10 10.1868 10 8.68137C10 7.17592 11.4933 5.9541 13.3333 5.9541H46.6667Z" fill="black"/>
    </mask>
    <g mask="url(#mask0_1033_6130)">
      <path d="M46.5331 11.4091V5.95455C43.0228 5.95455 40.1138 8.18184 39.8811 11.0477L46.5331 11.4091ZM46.5331 49.5909L39.8811 49.9523C40.1138 52.8182 43.0228 55.0455 46.5331 55.0455V49.5909ZM13.4667 49.5909V55.0455C16.9771 55.0455 19.8861 52.8182 20.1188 49.9523L13.4667 49.5909ZM13.4667 11.4091L20.1188 11.0477C19.8861 8.18184 16.9771 5.95455 13.4667 5.95455V11.4091ZM46.6666 5.95455V11.4091C44.8248 11.4091 43.3333 10.1888 43.3333 8.68182H49.9999H56.6666C56.6666 4.1639 52.1884 0.5 46.6666 0.5V5.95455ZM49.9999 8.68182H43.3333C43.3333 7.17481 44.8248 5.95455 46.6666 5.95455V11.4091V16.8636C52.1884 16.8636 56.6666 13.1997 56.6666 8.68182H49.9999ZM46.6666 11.4091V5.95455H46.5331V11.4091V16.8636H46.6666V11.4091ZM46.5331 11.4091L39.8811 11.0477C39.7643 12.4872 39.5402 14.2774 39.1274 15.949C38.6821 17.7526 38.1501 18.8461 37.7863 19.2925L43.3333 22.3182L48.8802 25.3438C50.7149 23.0922 51.6554 20.3012 52.1966 18.1097C52.7704 15.7864 53.0471 13.471 53.1851 11.7705L46.5331 11.4091ZM43.3333 22.3182L37.7863 19.2925C36.9273 20.3469 35.7438 21.1174 33.6284 22.6639C32.7481 23.3075 31.5201 24.2318 30.5216 25.3419C29.4757 26.5047 28.3333 28.2501 28.3333 30.5H34.9999H41.6666C41.6666 31.3855 41.2004 31.8747 41.2603 31.808C41.3674 31.6888 41.6748 31.4109 42.5123 30.7986C43.8328 29.8333 46.8159 27.8772 48.8802 25.3438L43.3333 22.3182ZM34.9999 30.5H28.3333C28.3333 32.7499 29.4757 34.4953 30.5216 35.6581C31.5201 36.7682 32.7481 37.6925 33.6284 38.3361C35.7438 39.8826 36.9273 40.6531 37.7863 41.7075L43.3333 38.6818L48.8802 35.6562C46.8159 33.1228 43.8328 31.1667 42.5123 30.2014C41.6748 29.5891 41.3674 29.3112 41.2603 29.192C41.2004 29.1253 41.6666 29.6145 41.6666 30.5H34.9999ZM43.3333 38.6818L37.7863 41.7075C38.1501 42.1539 38.6821 43.2474 39.1274 45.051C39.5402 46.7226 39.7643 48.5128 39.8811 49.9523L46.5331 49.5909L53.1851 49.2295C53.0471 47.529 52.7704 45.2136 52.1966 42.8903C51.6554 40.6988 50.7149 37.9078 48.8802 35.6562L43.3333 38.6818ZM46.5331 49.5909V55.0455H46.6666V49.5909V44.1364H46.5331V49.5909ZM46.6666 49.5909V55.0455C44.8248 55.0455 43.3333 53.8251 43.3333 52.3182H49.9999H56.6666C56.6666 47.8003 52.1884 44.1364 46.6666 44.1364V49.5909ZM49.9999 52.3182H43.3333C43.3333 50.8112 44.8248 49.5909 46.6666 49.5909V55.0455V60.5C52.1884 60.5 56.6666 56.836 56.6666 52.3182H49.9999ZM46.6666 55.0455V49.5909H13.3333V55.0455V60.5H46.6666V55.0455ZM13.3333 55.0455V49.5909C15.1752 49.5909 16.6666 50.8112 16.6666 52.3182H9.99992H3.33325C3.33325 56.836 7.81135 60.5 13.3333 60.5V55.0455ZM9.99992 52.3182H16.6666C16.6666 53.8251 15.1752 55.0455 13.3333 55.0455V49.5909V44.1364C7.81135 44.1364 3.33325 47.8003 3.33325 52.3182H9.99992ZM13.3333 49.5909V55.0455H13.4667V49.5909V44.1364H13.3333V49.5909ZM13.4667 49.5909L20.1188 49.9523C20.2356 48.5128 20.4596 46.7226 20.8724 45.051C21.3178 43.2474 21.8498 42.1539 22.2136 41.7075L16.6666 38.6818L11.1196 35.6562C9.28489 37.9078 8.3444 40.6988 7.80319 42.8903C7.22942 45.2136 6.9527 47.529 6.8147 49.2295L13.4667 49.5909ZM16.6666 38.6818L22.2136 41.7075C23.0726 40.6531 24.2561 39.8826 26.3714 38.3361C27.2518 37.6925 28.4798 36.7682 29.4783 35.6581C30.5241 34.4953 31.6666 32.7499 31.6666 30.5H24.9999H18.3333C18.3333 29.6145 18.7994 29.1253 18.7396 29.192C18.6324 29.3112 18.3251 29.5891 17.4876 30.2014C16.1671 31.1667 13.1839 33.1228 11.1196 35.6562L16.6666 38.6818ZM24.9999 30.5H31.6666C31.6666 28.2501 30.5241 26.5047 29.4783 25.3419C28.4798 24.2318 27.2518 23.3075 26.3714 22.6639C24.2561 21.1174 23.0726 20.3469 22.2136 19.2925L16.6666 22.3182L11.1196 25.3438C13.1839 27.8772 16.1671 29.8333 17.4876 30.7986C18.3251 31.4109 18.6324 31.6888 18.7396 31.808C18.7994 31.8747 18.3333 31.3855 18.3333 30.5H24.9999ZM16.6666 22.3182L22.2136 19.2925C21.8498 18.8461 21.3178 17.7526 20.8724 15.949C20.4596 14.2774 20.2356 12.4872 20.1188 11.0477L13.4667 11.4091L6.8147 11.7705C6.9527 13.471 7.22942 15.7864 7.80319 18.1097C8.3444 20.3012 9.28489 23.0922 11.1196 25.3438L16.6666 22.3182ZM13.4667 11.4091V5.95455H13.3333V11.4091V16.8636H13.4667V11.4091ZM13.3333 11.4091V5.95455C15.1752 5.95455 16.6666 7.17481 16.6666 8.68182H9.99992H3.33325C3.33325 13.1997 7.81135 16.8636 13.3333 16.8636V11.4091ZM9.99992 8.68182H16.6666C16.6666 10.1888 15.1752 11.4091 13.3333 11.4091V5.95455V0.5C7.81135 0.5 3.33325 4.1639 3.33325 8.68182H9.99992ZM13.3333 5.95455V11.4091H46.6666V5.95455V0.5H13.3333V5.95455Z" fill="white"/>
    </g>
    <path d="M34.9999 30.4998C34.9999 27.7712 40.4099 25.9057 43.3333 22.318C46.6666 18.2271 46.6666 8.68164 46.6666 8.68164H13.3333C13.3333 8.68164 13.3333 18.2271 16.6666 22.318C19.5899 25.9057 24.9999 27.7712 24.9999 30.4998C24.9999 33.2285 19.5899 35.0939 16.6666 38.6816C13.3333 42.7725 13.3333 52.318 13.3333 52.318H46.6666C46.6666 52.318 46.6666 42.7725 43.3333 38.6816C40.4099 35.0939 34.9999 33.2285 34.9999 30.4998Z" fill="#FFE8B6"/>
    <path d="M34.9984 38.6814C33.3334 38.6814 31.5701 37.3177 31.5701 35.9541C31.6667 33.6182 31.6667 32.0732 31.6667 30.4996C31.6667 26.1086 36.7234 24.28 39.8334 20.9541H20.1667C23.2751 24.28 28.3334 26.1086 28.3334 30.4996C28.3334 32.0746 28.3334 33.6209 28.4301 35.9541C28.4301 37.3177 26.6667 38.6814 25.0001 38.6814C21.6667 38.6814 19.0084 41.1141 18.3334 42.7723C16.6667 46.8632 16.6667 52.3177 16.6667 52.3177H43.3334C43.3334 52.3177 43.3334 46.8632 41.6667 42.7723C40.9917 41.1141 38.3317 38.6814 34.9984 38.6814Z" fill="#FFAC33"/>
    <path d="M50 52.3177C50 53.8232 48.5067 55.045 46.6667 55.045H13.3333C11.4933 55.045 10 53.8232 10 52.3177C10 50.8123 11.4933 49.5905 13.3333 49.5905H46.6667C48.5067 49.5905 50 50.8123 50 52.3177ZM50 8.68137C50 10.1868 48.5067 11.4086 46.6667 11.4086H13.3333C11.4933 11.4086 10 10.1868 10 8.68137C10 7.17592 11.4933 5.9541 13.3333 5.9541H46.6667C48.5067 5.9541 50 7.17592 50 8.68137Z" fill="#3B88C3"/>
  </g>
  <defs>
    <clipPath id="clip0_1033_6130">
      <rect width="60" height="60" fill="white" transform="translate(0 0.5)"/>
    </clipPath>
  </defs>
</svg>